<svg xmlns="http://www.w3.org/2000/svg" xmlns:xlink="http://www.w3.org/1999/xlink" width="500" zoomAndPan="magnify" viewBox="0 0 375 374.999991" height="500" preserveAspectRatio="xMidYMid meet" version="1.0"><defs><g/><clipPath id="8671bc5f3c"><path d="M 75.949219 170.125 L 299.050781 170.125 L 299.050781 204.875 L 75.949219 204.875 Z M 75.949219 170.125 " clip-rule="nonzero"/></clipPath></defs><g fill="#000000" fill-opacity="1"><g transform="translate(116.548091, 222.663367)"><g><path d="M 7.023438 0 L 71.074219 0 L 72.039062 -15.566406 L 70.523438 -15.839844 C 65.703125 -5.507812 59.644531 -2.203125 46.417969 -2.203125 L 30.027344 -2.203125 C 26.035156 -2.203125 23.828125 -4.40625 23.828125 -8.402344 L 23.828125 -78.925781 C 23.828125 -90.222656 25.070312 -93.390625 29.339844 -94.628906 L 29.339844 -96.421875 L 7.023438 -96.421875 L 7.023438 -94.628906 C 11.15625 -93.390625 12.535156 -90.222656 12.535156 -78.925781 L 12.535156 -17.492188 C 12.535156 -6.199219 11.15625 -3.03125 7.023438 -1.789062 Z M 7.023438 0 "/></g></g></g><g fill="#000000" fill-opacity="1"><g transform="translate(182.385149, 222.663367)"><g><path d="M 7.023438 0 L 29.339844 0 L 29.339844 -1.789062 C 25.070312 -3.03125 23.828125 -6.199219 23.828125 -17.492188 L 23.828125 -38.15625 L 33.609375 -38.15625 C 59.230469 -38.15625 72.589844 -50.964844 72.589844 -69.285156 C 72.589844 -82.644531 63.5 -96.421875 34.988281 -96.421875 L 7.023438 -96.421875 L 7.023438 -94.628906 C 11.15625 -93.390625 12.535156 -90.222656 12.535156 -78.925781 L 12.535156 -17.492188 C 12.535156 -6.199219 11.15625 -3.03125 7.023438 -1.789062 Z M 23.828125 -40.222656 L 23.828125 -94.078125 C 25.484375 -94.214844 27.6875 -94.355469 29.613281 -94.355469 C 51.792969 -94.355469 60.46875 -80.855469 60.46875 -66.117188 C 60.46875 -49.863281 50.964844 -40.222656 33.335938 -40.222656 Z M 23.828125 -40.222656 "/></g></g></g><g clip-path="url(#8671bc5f3c)"><path fill="#ffffff" d="M 75.949219 170.125 L 299.113281 170.125 L 299.113281 204.875 L 75.949219 204.875 Z M 75.949219 170.125 " fill-opacity="1" fill-rule="nonzero"/></g><g fill="#000000" fill-opacity="1"><g transform="translate(94.518559, 252.283723)"><g><path d="M 0.804688 0 L 3.359375 0 L 3.359375 -0.203125 C 2.871094 -0.347656 2.730469 -0.710938 2.730469 -2.003906 L 2.730469 -4.367188 L 3.847656 -4.367188 C 6.78125 -4.367188 8.3125 -5.835938 8.3125 -7.933594 C 8.3125 -9.464844 7.269531 -11.039062 4.007812 -11.039062 L 0.804688 -11.039062 L 0.804688 -10.835938 C 1.277344 -10.695312 1.433594 -10.332031 1.433594 -9.039062 L 1.433594 -2.003906 C 1.433594 -0.710938 1.277344 -0.347656 0.804688 -0.203125 Z M 2.730469 -4.605469 L 2.730469 -10.773438 C 2.917969 -10.789062 3.171875 -10.804688 3.390625 -10.804688 C 5.929688 -10.804688 6.925781 -9.257812 6.925781 -7.570312 C 6.925781 -5.710938 5.835938 -4.605469 3.816406 -4.605469 Z M 2.730469 -4.605469 "/></g></g></g><g fill="#000000" fill-opacity="1"><g transform="translate(115.569604, 252.283723)"><g><path d="M 6.433594 0.15625 C 9.085938 0.15625 12.019531 -1.578125 12.019531 -5.472656 C 12.019531 -9.335938 9.101562 -11.167969 6.433594 -11.167969 C 3.089844 -11.167969 0.820312 -8.769531 0.820312 -5.535156 C 0.820312 -1.625 3.753906 0.15625 6.433594 0.15625 Z M 2.082031 -6.449219 C 1.988281 -9.023438 3.390625 -10.804688 5.789062 -10.804688 C 8.613281 -10.804688 10.679688 -7.730469 10.789062 -4.433594 C 10.867188 -2.066406 9.621094 -0.238281 7.097656 -0.238281 C 4.273438 -0.238281 2.191406 -3.28125 2.082031 -6.449219 Z M 2.082031 -6.449219 "/></g></g></g><g fill="#000000" fill-opacity="1"><g transform="translate(140.734468, 252.283723)"><g><path d="M 8.832031 0.109375 C 9.148438 0.109375 9.558594 0.078125 9.792969 0 L 9.792969 -0.1875 C 9.714844 -0.171875 9.636719 -0.171875 9.542969 -0.171875 C 9.007812 -0.171875 8.691406 -0.695312 7.933594 -2.585938 C 7.175781 -4.527344 6.875 -5.488281 4.9375 -5.742188 C 6.988281 -5.976562 8.058594 -7.097656 8.058594 -8.582031 C 8.058594 -9.984375 7.113281 -11.039062 3.910156 -11.039062 L 0.804688 -11.039062 L 0.804688 -10.835938 C 1.292969 -10.695312 1.433594 -10.332031 1.433594 -9.039062 L 1.433594 -2.003906 C 1.433594 -0.710938 1.292969 -0.347656 0.804688 -0.203125 L 0.804688 0 L 3.359375 0 L 3.359375 -0.203125 C 2.871094 -0.347656 2.730469 -0.710938 2.730469 -2.003906 L 2.730469 -5.695312 L 3.738281 -5.695312 C 5.628906 -5.695312 5.757812 -4.589844 6.671875 -2.414062 C 7.367188 -0.773438 7.617188 0.109375 8.832031 0.109375 Z M 2.730469 -5.929688 L 2.730469 -10.773438 C 2.980469 -10.789062 3.234375 -10.804688 3.46875 -10.804688 C 5.804688 -10.804688 6.71875 -9.621094 6.71875 -8.21875 C 6.71875 -6.875 5.867188 -5.929688 4.054688 -5.929688 Z M 2.730469 -5.929688 "/></g></g></g><g fill="#000000" fill-opacity="1"><g transform="translate(162.731218, 252.283723)"><g><path d="M 3.140625 0 L 5.710938 0 L 5.710938 -0.203125 C 5.21875 -0.347656 5.078125 -0.710938 5.078125 -2.003906 L 5.078125 -10.789062 L 5.820312 -10.789062 C 7.238281 -10.789062 7.855469 -10.410156 8.390625 -9.273438 L 8.566406 -9.304688 L 8.46875 -11.039062 L 0.347656 -11.039062 L 0.253906 -9.304688 L 0.425781 -9.273438 C 0.960938 -10.410156 1.578125 -10.789062 2.996094 -10.789062 L 3.769531 -10.789062 L 3.769531 -2.003906 C 3.769531 -0.710938 3.628906 -0.347656 3.140625 -0.203125 Z M 3.140625 0 "/></g></g></g><g fill="#000000" fill-opacity="1"><g transform="translate(183.908365, 252.283723)"><g><path d="M 0.804688 0 L 3.359375 0 L 3.359375 -0.203125 C 2.871094 -0.347656 2.730469 -0.710938 2.730469 -2.003906 L 2.730469 -5.914062 L 4.605469 -5.914062 C 6.402344 -5.914062 6.84375 -5.535156 7.050781 -4.828125 L 7.238281 -4.828125 L 7.238281 -7.222656 L 7.050781 -7.222656 C 6.84375 -6.53125 6.402344 -6.152344 4.605469 -6.167969 L 2.730469 -6.167969 L 2.730469 -10.789062 L 5.519531 -10.789062 C 7.003906 -10.789062 7.664062 -10.394531 8.203125 -9.335938 L 8.375 -9.382812 L 8.234375 -11.039062 L 0.804688 -11.039062 L 0.804688 -10.835938 C 1.277344 -10.695312 1.433594 -10.332031 1.433594 -9.039062 L 1.433594 -2.003906 C 1.433594 -0.710938 1.277344 -0.347656 0.804688 -0.203125 Z M 0.804688 0 "/></g></g></g><g fill="#000000" fill-opacity="1"><g transform="translate(205.069736, 252.283723)"><g><path d="M 6.433594 0.15625 C 9.085938 0.15625 12.019531 -1.578125 12.019531 -5.472656 C 12.019531 -9.335938 9.101562 -11.167969 6.433594 -11.167969 C 3.089844 -11.167969 0.820312 -8.769531 0.820312 -5.535156 C 0.820312 -1.625 3.753906 0.15625 6.433594 0.15625 Z M 2.082031 -6.449219 C 1.988281 -9.023438 3.390625 -10.804688 5.789062 -10.804688 C 8.613281 -10.804688 10.679688 -7.730469 10.789062 -4.433594 C 10.867188 -2.066406 9.621094 -0.238281 7.097656 -0.238281 C 4.273438 -0.238281 2.191406 -3.28125 2.082031 -6.449219 Z M 2.082031 -6.449219 "/></g></g></g><g fill="#000000" fill-opacity="1"><g transform="translate(230.234606, 252.283723)"><g><path d="M 0.804688 0 L 8.136719 0 L 8.25 -1.78125 L 8.074219 -1.8125 C 7.523438 -0.632812 6.828125 -0.253906 5.316406 -0.253906 L 3.4375 -0.253906 C 2.980469 -0.253906 2.730469 -0.503906 2.730469 -0.960938 L 2.730469 -9.039062 C 2.730469 -10.332031 2.871094 -10.695312 3.359375 -10.835938 L 3.359375 -11.039062 L 0.804688 -11.039062 L 0.804688 -10.835938 C 1.277344 -10.695312 1.433594 -10.332031 1.433594 -9.039062 L 1.433594 -2.003906 C 1.433594 -0.710938 1.277344 -0.347656 0.804688 -0.203125 Z M 0.804688 0 "/></g></g></g><g fill="#000000" fill-opacity="1"><g transform="translate(251.143808, 252.283723)"><g><path d="M 0.804688 0 L 3.359375 0 L 3.359375 -0.203125 C 2.871094 -0.347656 2.730469 -0.710938 2.730469 -2.003906 L 2.730469 -9.039062 C 2.730469 -10.332031 2.871094 -10.695312 3.359375 -10.835938 L 3.359375 -11.039062 L 0.804688 -11.039062 L 0.804688 -10.835938 C 1.277344 -10.695312 1.433594 -10.332031 1.433594 -9.039062 L 1.433594 -2.003906 C 1.433594 -0.710938 1.277344 -0.347656 0.804688 -0.203125 Z M 0.804688 0 "/></g></g></g><g fill="#000000" fill-opacity="1"><g transform="translate(267.655479, 252.283723)"><g><path d="M 6.433594 0.15625 C 9.085938 0.15625 12.019531 -1.578125 12.019531 -5.472656 C 12.019531 -9.335938 9.101562 -11.167969 6.433594 -11.167969 C 3.089844 -11.167969 0.820312 -8.769531 0.820312 -5.535156 C 0.820312 -1.625 3.753906 0.15625 6.433594 0.15625 Z M 2.082031 -6.449219 C 1.988281 -9.023438 3.390625 -10.804688 5.789062 -10.804688 C 8.613281 -10.804688 10.679688 -7.730469 10.789062 -4.433594 C 10.867188 -2.066406 9.621094 -0.238281 7.097656 -0.238281 C 4.273438 -0.238281 2.191406 -3.28125 2.082031 -6.449219 Z M 2.082031 -6.449219 "/></g></g></g><g fill="#000000" fill-opacity="1"><g transform="translate(119.680384, 206.744835)"><g><path d="M 15.449219 -5.484375 C 17.410156 -5.132812 20.128906 -5.082031 22.089844 -5.484375 C 23.398438 -5.738281 25.160156 -6.691406 26.117188 -7.699219 C 26.417969 -8.050781 26.671875 -8.757812 26.570312 -8.855469 C 26.417969 -8.957031 26.117188 -8.757812 26.117188 -8.503906 L 26.066406 -8.203125 C 26.066406 -7.949219 25.511719 -7.398438 24.859375 -6.996094 C 22.796875 -5.6875 20.933594 -5.738281 18.667969 -5.835938 C 15.347656 -6.039062 11.121094 -7.75 8.355469 -9.410156 L 8 -9.5625 C 10.417969 -11.070312 13.839844 -16.152344 14.34375 -16.957031 C 16.757812 -20.984375 17.714844 -23.351562 19.375 -27.777344 C 22.445312 -29.289062 24.457031 -29.992188 26.015625 -32.359375 C 26.671875 -33.414062 26.972656 -34.519531 26.671875 -34.824219 C 26.46875 -35.023438 26.066406 -34.972656 25.011719 -34.570312 C 22.695312 -33.617188 19.726562 -30.546875 18.667969 -28.128906 C 16.152344 -27.125 12.882812 -27.023438 11.625 -27.175781 C 9.613281 -27.476562 7.296875 -28.734375 6.792969 -30.796875 C 6.644531 -31.351562 6.390625 -31.453125 6.289062 -31 C 6.238281 -30.597656 6.441406 -29.691406 6.644531 -29.339844 C 7.144531 -28.632812 8.203125 -27.726562 9.058594 -27.375 C 12.027344 -26.066406 16.304688 -26.773438 18.015625 -27.578125 L 18.316406 -27.628906 L 17.8125 -26.621094 C 16.304688 -23.550781 14.996094 -20.378906 13.234375 -17.363281 C 12.179688 -15.5 11.019531 -13.535156 9.359375 -11.726562 L 8 -10.265625 C 7.5 -9.710938 7.648438 -9.710938 5.9375 -10.515625 C 5.132812 -10.921875 4.980469 -10.96875 4.730469 -10.871094 C 4.175781 -10.617188 3.523438 -9.5625 3.523438 -8.957031 C 3.523438 -8.605469 3.925781 -8.203125 4.328125 -8.101562 C 4.882812 -8 5.886719 -8.253906 6.238281 -8.554688 C 6.59375 -8.855469 6.792969 -8.855469 7.296875 -8.554688 C 7.949219 -8.203125 9.460938 -7.5 9.710938 -7.398438 C 9.863281 -7.347656 10.164062 -7.246094 10.367188 -7.144531 C 11.675781 -6.441406 13.636719 -5.789062 15.449219 -5.484375 Z M 19.726562 -28.433594 L 20.078125 -29.339844 C 21.488281 -31.453125 22.496094 -32.808594 23.5 -33.464844 C 24.457031 -34.070312 25.765625 -34.621094 26.269531 -34.671875 C 26.46875 -34.671875 26.46875 -34.621094 26.417969 -34.167969 C 26.320312 -33.515625 26.167969 -33.113281 25.613281 -32.308594 C 24.355469 -30.394531 21.839844 -28.9375 19.726562 -28.433594 Z M 4.027344 -8.757812 C 3.925781 -8.855469 3.925781 -9.007812 4.074219 -9.410156 C 4.277344 -9.8125 4.527344 -10.214844 4.628906 -10.214844 C 4.679688 -10.214844 5.03125 -9.964844 5.484375 -9.660156 L 6.339844 -9.058594 L 6.039062 -8.90625 C 5.285156 -8.503906 4.277344 -8.453125 4.027344 -8.757812 Z M 4.027344 -8.757812 "/></g></g></g><g fill="#000000" fill-opacity="1"><g transform="translate(141.417445, 206.744835)"><g><path d="M 2.214844 -20.378906 C 2.464844 -21.035156 3.070312 -21.386719 3.625 -20.832031 C 4.027344 -20.429688 4.074219 -20.429688 4.480469 -20.429688 C 5.335938 -20.378906 6.039062 -21.234375 6.039062 -21.640625 C 6.039062 -21.6875 5.886719 -21.738281 5.738281 -21.738281 C 5.234375 -21.738281 5.183594 -21.1875 4.78125 -21.035156 C 4.175781 -20.785156 3.070312 -22.140625 2.113281 -21.488281 C 1.960938 -21.386719 1.761719 -21.1875 1.710938 -21.035156 C 1.609375 -20.832031 1.609375 -20.785156 1.761719 -20.53125 C 1.960938 -20.230469 2.164062 -20.179688 2.214844 -20.378906 Z M -0.152344 -14.492188 C 0.300781 -14.492188 0.554688 -14.644531 1.257812 -15.199219 L 1.8125 -15.652344 C 1.960938 -15.097656 2.265625 -14.695312 2.667969 -14.492188 C 3.925781 -13.789062 8.050781 -15.199219 8.304688 -16.253906 C 8.304688 -16.304688 7.902344 -15.902344 6.742188 -15.449219 C 5.484375 -15.046875 4.480469 -14.644531 3.824219 -14.945312 C 3.070312 -15.296875 3.171875 -15.953125 3.371094 -16.554688 C 3.625 -17.363281 3.875 -17.8125 3.722656 -17.964844 C 3.671875 -18.015625 3.523438 -18.167969 3.421875 -18.316406 C 3.171875 -18.71875 2.71875 -18.769531 1.960938 -18.417969 C 0.90625 -17.914062 -0.554688 -16.003906 -0.652344 -15.097656 C -0.703125 -14.644531 -0.554688 -14.492188 -0.152344 -14.492188 Z M 0.351562 -15.046875 C -0.203125 -15.046875 1.15625 -17.460938 1.960938 -17.964844 C 2.363281 -18.21875 2.917969 -18.265625 3.019531 -18.066406 C 3.171875 -17.765625 0.804688 -15.046875 0.351562 -15.046875 Z M 0.351562 -15.046875 "/></g></g></g><g fill="#000000" fill-opacity="1"><g transform="translate(149.619162, 206.744835)"><g><path d="M 4.527344 -13.9375 C 5.9375 -13.535156 7.144531 -13.9375 8.90625 -15.046875 C 10.265625 -15.902344 10.367188 -16.304688 10.164062 -16.152344 L 9.007812 -15.398438 C 7.5 -14.390625 5.285156 -13.488281 4.628906 -15.398438 C 4.480469 -15.851562 4.378906 -16.152344 4.378906 -16.859375 C 4.378906 -16.957031 4.277344 -17.109375 4.175781 -17.210938 C 3.773438 -17.613281 2.96875 -17.410156 1.914062 -16.605469 C 1.710938 -16.457031 1.558594 -16.40625 1.507812 -16.40625 C 1.460938 -16.40625 1.609375 -16.757812 1.710938 -17.058594 C 1.914062 -17.714844 2.0625 -17.863281 2.011719 -18.117188 C 1.960938 -18.316406 1.359375 -18.265625 1.007812 -18.015625 C 0.703125 -17.8125 0.605469 -17.664062 0.101562 -16.605469 C -0.25 -15.902344 -0.300781 -15.097656 0 -14.84375 C 0.300781 -14.59375 0.554688 -14.792969 1.308594 -15.550781 C 1.460938 -15.699219 2.667969 -16.808594 2.96875 -16.808594 C 3.019531 -16.808594 3.019531 -16.554688 3.019531 -16.304688 C 3.070312 -15.398438 3.21875 -14.292969 4.527344 -13.9375 Z M 4.527344 -13.9375 "/></g></g></g><g fill="#000000" fill-opacity="1"><g transform="translate(159.783249, 206.744835)"><g><path d="M -12.582031 7.144531 C -12.027344 7.296875 -10.96875 6.996094 -10.066406 6.441406 C -9.5625 6.140625 -9.058594 5.789062 -8.90625 5.6875 C -6.542969 3.523438 -4.730469 0.855469 -2.164062 -4.277344 L -1.007812 -6.691406 C -0.703125 -7.296875 -0.25 -8.253906 0 -8.855469 C 0.25 -9.460938 0.503906 -10.015625 0.605469 -10.113281 C 1.410156 -10.667969 3.421875 -11.523438 4.125 -11.523438 C 4.328125 -11.574219 4.578125 -11.523438 4.730469 -11.472656 C 4.929688 -11.421875 4.980469 -11.421875 4.980469 -11.675781 C 4.980469 -11.976562 4.882812 -12.027344 4.328125 -11.976562 C 3.21875 -11.875 1.960938 -11.171875 0.855469 -10.71875 C 0.703125 -10.71875 2.414062 -14.695312 3.472656 -16.808594 C 3.671875 -17.210938 3.925781 -18.265625 3.371094 -18.667969 C 3.21875 -18.769531 2.769531 -18.820312 2.0625 -18.570312 C 0.957031 -18.21875 -0.152344 -16.457031 -0.605469 -15.449219 C -0.804688 -14.996094 -0.753906 -14.695312 -0.503906 -14.492188 C -0.101562 -14.191406 0.605469 -14.34375 1.105469 -14.792969 C 1.257812 -14.894531 1.359375 -14.945312 1.359375 -14.84375 C 1.359375 -14.746094 1.058594 -13.738281 0.503906 -12.53125 C 0.300781 -12.226562 -0.402344 -10.566406 -0.554688 -10.015625 L -1.257812 -9.511719 C -3.773438 -8 -4.730469 -7.296875 -6.792969 -5.285156 C -8.101562 -4.027344 -9.863281 -2.113281 -10.46875 -1.257812 C -11.421875 0 -12.480469 1.15625 -13.183594 3.121094 C -13.585938 4.027344 -14.039062 6.792969 -12.582031 7.144531 Z M 0.101562 -15.046875 C 0.101562 -15.449219 1.257812 -17.410156 1.8125 -17.964844 C 2.363281 -18.519531 3.019531 -18.570312 3.171875 -18.066406 C 3.21875 -17.914062 3.121094 -17.8125 2.96875 -17.5625 C 2.515625 -16.910156 2.164062 -15.953125 0.855469 -15.046875 C 0.300781 -14.644531 0.101562 -14.644531 0.101562 -15.046875 Z M -11.523438 6.742188 C -13.386719 6.996094 -13.183594 5.382812 -13.132812 4.328125 C -12.882812 1.609375 -9.761719 -2.011719 -7.949219 -3.824219 C -6.59375 -5.183594 -5.535156 -6.191406 -3.824219 -7.546875 C -3.472656 -7.902344 -0.90625 -9.511719 -0.855469 -9.410156 C -0.855469 -9.410156 -1.007812 -8.90625 -1.257812 -8.355469 C -1.460938 -7.800781 -2.113281 -6.441406 -2.667969 -5.382812 L -4.378906 -1.960938 C -5.789062 0.855469 -7.5 3.472656 -8.855469 4.882812 C -9.710938 5.886719 -11.070312 6.644531 -11.523438 6.742188 Z M -11.523438 6.742188 "/></g></g></g><g fill="#000000" fill-opacity="1"><g transform="translate(166.281296, 206.744835)"><g/></g></g><g fill="#000000" fill-opacity="1"><g transform="translate(173.828889, 206.744835)"><g/></g></g><g fill="#000000" fill-opacity="1"><g transform="translate(181.376481, 206.744835)"><g/></g></g><g fill="#000000" fill-opacity="1"><g transform="translate(188.934088, 206.744835)"><g><path d="M 11.472656 -10.515625 C 11.371094 -11.523438 11.421875 -12.984375 11.625 -13.789062 C 11.925781 -14.945312 12.179688 -15.601562 12.378906 -15.699219 C 14.441406 -16.203125 17.714844 -17.5625 19.675781 -18.621094 C 20.027344 -18.820312 20.28125 -18.921875 20.53125 -18.972656 C 20.832031 -19.023438 21.285156 -18.820312 21.589844 -18.570312 C 21.839844 -18.316406 21.839844 -18.167969 22.042969 -18.167969 C 22.746094 -18.167969 22.542969 -18.570312 22.445312 -18.769531 C 22.292969 -19.074219 21.589844 -19.273438 21.285156 -19.273438 C 20.984375 -19.273438 21.285156 -19.574219 23.097656 -20.785156 C 25.714844 -22.542969 28.382812 -25.464844 27.726562 -28.9375 C 26.972656 -33.3125 21.941406 -33.867188 18.367188 -33.617188 C 16.152344 -33.464844 13.488281 -32.960938 11.121094 -32.003906 C 8.203125 -30.796875 5.433594 -28.886719 4.429688 -27.324219 C 3.976562 -26.722656 3.523438 -25.464844 3.523438 -25.011719 C 3.523438 -24.65625 3.574219 -23.902344 4.175781 -23.800781 C 4.78125 -23.703125 4.929688 -24.207031 4.328125 -24.207031 C 4.027344 -24.207031 3.824219 -24.859375 3.824219 -25.011719 C 3.875 -27.125 6.390625 -29.035156 7.902344 -30.042969 C 11.371094 -32.15625 15.449219 -33.261719 19.324219 -33.363281 C 22.59375 -33.464844 26.417969 -32.558594 26.972656 -28.683594 C 27.476562 -24.910156 24.304688 -22.242188 21.640625 -20.378906 C 20.984375 -19.929688 20.632812 -19.476562 20.230469 -19.574219 C 18.316406 -19.878906 16.507812 -19.777344 13.535156 -19.222656 L 13.738281 -19.777344 C 14.441406 -21.640625 15.550781 -23.351562 16.253906 -25.210938 C 16.507812 -25.964844 16.507812 -26.066406 16.355469 -26.21875 C 16.203125 -26.371094 16.101562 -26.371094 15.851562 -26.269531 C 15.652344 -26.21875 15.398438 -25.917969 14.84375 -24.757812 C 14.039062 -23.25 13.132812 -21.738281 12.429688 -20.128906 C 12.027344 -19.273438 11.875 -18.972656 11.675781 -18.921875 C 10.316406 -18.519531 9.109375 -18.21875 7.902344 -17.664062 C 7.296875 -17.363281 5.03125 -16.304688 5.433594 -15.296875 C 5.585938 -14.84375 5.835938 -14.792969 6.792969 -14.792969 C 8.050781 -14.84375 8.855469 -14.894531 9.460938 -14.996094 C 10.164062 -15.148438 10.617188 -15.046875 10.515625 -14.792969 C 10.46875 -14.695312 10.417969 -14.089844 10.367188 -13.386719 C 10.316406 -12.277344 10.46875 -11.421875 10.617188 -10.820312 C 10.921875 -9.359375 11.574219 -9.511719 11.472656 -10.515625 Z M 12.378906 -16.203125 L 12.832031 -17.511719 L 13.335938 -18.769531 C 14.792969 -18.972656 16.203125 -19.273438 17.664062 -19.324219 C 18.769531 -19.375 19.273438 -19.324219 19.777344 -19.222656 C 19.777344 -19.023438 16.054688 -17.261719 14.242188 -16.605469 C 13.789062 -16.457031 12.429688 -16.152344 12.378906 -16.203125 Z M 8.101562 -15.246094 C 6.691406 -15.097656 5.835938 -15.148438 5.835938 -15.398438 C 5.835938 -16.65625 10.265625 -18.316406 11.171875 -18.46875 C 11.324219 -18.46875 11.777344 -18.667969 11.675781 -18.417969 L 11.222656 -17.210938 C 10.96875 -16.65625 10.820312 -16.101562 10.820312 -16.003906 C 10.769531 -15.601562 10.113281 -15.398438 8.101562 -15.246094 Z M 8.101562 -15.246094 "/></g></g></g><g fill="#000000" fill-opacity="1"><g transform="translate(212.23099, 206.744835)"><g><path d="M 5.835938 -9.8125 C 7.75 -9.511719 9.761719 -10.113281 11.875 -11.625 C 12.582031 -12.128906 12.128906 -12.078125 11.371094 -11.574219 C 10.566406 -11.019531 9.460938 -10.515625 7.75 -10.214844 C 4.679688 -9.660156 3.671875 -12.832031 3.574219 -14.996094 C 3.574219 -15.652344 3.371094 -16.101562 3.171875 -16.152344 C 3.070312 -16.152344 2.71875 -16.003906 2.316406 -15.851562 C 2.011719 -15.75 1.207031 -15.347656 0.605469 -14.996094 C 0.652344 -15.296875 0.703125 -15.601562 0.855469 -15.902344 C 1.105469 -17.007812 1.710938 -19.375 1.960938 -20.078125 L 2.414062 -21.285156 L 2.769531 -22.140625 L 3.523438 -22.746094 C 4.929688 -23.851562 8.503906 -26.621094 10.113281 -29.792969 C 11.070312 -31.753906 10.820312 -31.90625 10.96875 -32.761719 C 10.820312 -34.117188 10.316406 -34.472656 9.257812 -33.96875 C 8.304688 -33.566406 7.09375 -32.457031 6.089844 -31.300781 C 4.980469 -29.890625 4.175781 -28.734375 3.171875 -26.21875 C 2.011719 -23.300781 1.761719 -22.945312 1.410156 -21.789062 C 0.605469 -21.4375 0.0507812 -21.386719 -0.605469 -21.6875 C -0.855469 -21.839844 -1.105469 -22.042969 -1.257812 -22.292969 C -1.460938 -22.695312 -1.609375 -22.695312 -1.914062 -22.34375 C -2.0625 -22.089844 -2.0625 -22.089844 -1.8125 -21.789062 C -1.507812 -21.386719 -0.804688 -21.085938 -0.152344 -21.085938 C 0.25 -21.035156 0.753906 -21.1875 1.257812 -21.386719 C 0.652344 -19.726562 -0.453125 -16.304688 -0.652344 -15.199219 C -0.90625 -13.535156 -0.605469 -13.183594 0.453125 -13.9375 L 1.507812 -14.792969 C 1.863281 -15.097656 2.265625 -15.398438 2.316406 -15.398438 C 2.363281 -15.398438 2.414062 -15.046875 2.414062 -14.695312 C 2.363281 -12.480469 3.421875 -10.164062 5.835938 -9.8125 Z M 3.21875 -23.550781 C 4.175781 -26.320312 4.78125 -27.628906 5.789062 -29.539062 C 6.492188 -30.796875 8.304688 -33.765625 9.863281 -33.765625 C 11.421875 -33.765625 10.113281 -31 9.863281 -30.546875 C 9.210938 -29.136719 8.707031 -28.128906 7.597656 -26.921875 C 6.390625 -25.5625 5.234375 -24.457031 4.074219 -23.601562 C 2.96875 -22.746094 2.96875 -22.746094 3.21875 -23.550781 Z M 3.21875 -23.550781 "/></g></g></g><g fill="#000000" fill-opacity="1"><g transform="translate(218.923194, 206.744835)"><g><path d="M -0.152344 -14.492188 C 0.300781 -14.492188 0.554688 -14.644531 1.257812 -15.199219 L 1.8125 -15.652344 C 1.960938 -15.097656 2.265625 -14.695312 2.667969 -14.492188 C 3.925781 -13.789062 8.050781 -15.199219 8.304688 -16.253906 C 8.304688 -16.304688 7.902344 -15.902344 6.742188 -15.449219 C 5.484375 -15.046875 4.480469 -14.644531 3.824219 -14.945312 C 3.070312 -15.296875 3.171875 -15.953125 3.371094 -16.554688 C 3.625 -17.363281 3.875 -17.8125 3.722656 -17.964844 C 3.671875 -18.015625 3.523438 -18.167969 3.421875 -18.316406 C 3.171875 -18.71875 2.71875 -18.769531 1.960938 -18.417969 C 0.90625 -17.914062 -0.554688 -16.003906 -0.652344 -15.097656 C -0.703125 -14.644531 -0.554688 -14.492188 -0.152344 -14.492188 Z M 0.351562 -15.046875 C -0.203125 -15.046875 1.15625 -17.460938 1.960938 -17.964844 C 2.363281 -18.21875 2.917969 -18.265625 3.019531 -18.066406 C 3.171875 -17.765625 0.804688 -15.046875 0.351562 -15.046875 Z M 0.351562 -15.046875 "/></g></g></g><g fill="#000000" fill-opacity="1"><g transform="translate(227.124911, 206.744835)"><g><path d="M 4.527344 -13.9375 C 5.9375 -13.535156 7.144531 -13.9375 8.90625 -15.046875 C 10.265625 -15.902344 10.367188 -16.304688 10.164062 -16.152344 L 9.007812 -15.398438 C 7.5 -14.390625 5.285156 -13.488281 4.628906 -15.398438 C 4.480469 -15.851562 4.378906 -16.152344 4.378906 -16.859375 C 4.378906 -16.957031 4.277344 -17.109375 4.175781 -17.210938 C 3.773438 -17.613281 2.96875 -17.410156 1.914062 -16.605469 C 1.710938 -16.457031 1.558594 -16.40625 1.507812 -16.40625 C 1.460938 -16.40625 1.609375 -16.757812 1.710938 -17.058594 C 1.914062 -17.714844 2.0625 -17.863281 2.011719 -18.117188 C 1.960938 -18.316406 1.359375 -18.265625 1.007812 -18.015625 C 0.703125 -17.8125 0.605469 -17.664062 0.101562 -16.605469 C -0.25 -15.902344 -0.300781 -15.097656 0 -14.84375 C 0.300781 -14.59375 0.554688 -14.792969 1.308594 -15.550781 C 1.460938 -15.699219 2.667969 -16.808594 2.96875 -16.808594 C 3.019531 -16.808594 3.019531 -16.554688 3.019531 -16.304688 C 3.070312 -15.398438 3.21875 -14.292969 4.527344 -13.9375 Z M 4.527344 -13.9375 "/></g></g></g></svg>